<?xml version="1.0" standalone="no"?>
<!DOCTYPE svg PUBLIC "-//W3C//DTD SVG 20010904//EN"
 "http://www.w3.org/TR/2001/REC-SVG-20010904/DTD/svg10.dtd">
<svg version="1.0" xmlns="http://www.w3.org/2000/svg"
 width="736.000000pt" height="736.000000pt" viewBox="0 0 736.000000 736.000000"
 preserveAspectRatio="xMidYMid meet">

<g transform="translate(0.000000,736.000000) scale(0.100000,-0.100000)"
fill="#000000" stroke="none">
<path d="M2209 4863 c104 -181 249 -432 322 -559 74 -127 361 -626 639 -1107
278 -482 507 -876 510 -876 10 0 575 992 574 1008 0 15 -228 416 -655 1151
-59 102 -175 302 -257 445 l-150 260 -585 3 -586 2 188 -327z"/>
<path d="M4340 5186 c0 -2 56 -100 123 -217 202 -350 353 -613 364 -633 9 -15
23 5 95 130 47 82 160 278 251 437 l166 287 -500 0 c-274 0 -499 -2 -499 -4z"/>
</g>
</svg>
